<?xml version="1.0" encoding="UTF-8"?>
<svg xmlns="http://www.w3.org/2000/svg" viewBox="0 0 100 100"><defs>
    <linearGradient id="g" x1="0" y1="0" x2="1" y2="1">
      <stop offset="0" stop-color="#F6DC8E"/><stop offset="1" stop-color="#D9A63C"/>
    </linearGradient>
    <linearGradient id="g2" x1="0" y1="1" x2="1" y2="0">
      <stop offset="0" stop-color="#8A5E14"/><stop offset="1" stop-color="#D9A63C"/>
    </linearGradient>
    <radialGradient id="hl" cx="0.34" cy="0.26" r="0.58">
      <stop offset="0" stop-color="#ffffff" stop-opacity="0.60"/>
      <stop offset="1" stop-color="#ffffff" stop-opacity="0"/>
    </radialGradient>
    <filter id="sh" x="-25%" y="-25%" width="150%" height="150%">
      <feDropShadow dx="0" dy="2.4" stdDeviation="2.2" flood-color="#2b2118" flood-opacity="0.34"/>
    </filter>
  </defs>
  <g filter="url(#sh)"><path d="M50 6 A44 44 0 1 0 50 94 A44 44 0 1 0 50 6 Z M37 37 H63 V63 H37 Z"
      fill-rule="evenodd" fill="url(#g)" stroke="#8A5E14" stroke-width="2.8" stroke-linejoin="round"/>
    <circle cx="50" cy="50" r="35" fill="none" stroke="#8A5E14" stroke-width="1.8" opacity="0.5"/>
    <rect x="37" y="37" width="26" height="26" fill="none" stroke="#8A5E14" stroke-width="2.2" opacity="0.75"/>
    <g fill="none" stroke="#8A5E14" stroke-width="2.4" opacity="0.62" stroke-linecap="round">
      <path d="M22 50 h8"/><path d="M70 50 h8"/><path d="M50 22 v8"/><path d="M50 70 v8"/>
    </g></g>
  <g pointer-events="none"><path d="M50 6 A44 44 0 1 0 50 94 A44 44 0 1 0 50 6 Z M37 37 H63 V63 H37 Z"
      fill-rule="evenodd" fill="url(#hl)"/></g>
</svg>
